<svg width="35" height="29" viewBox="0 0 35 29" fill="none" xmlns="http://www.w3.org/2000/svg">
<path d="M17.0833 6.52725C17.0833 3.625 14.7083 1.25 11.8061 1.25H1.25V20.25H11.871C17.0833 20.25 17.0833 25.5288 17.0833 25.5288M17.0833 6.52725C17.0833 3.62342 19.4583 1.25 22.3606 1.25H32.9167V20.25H22.3606C17.0833 20.25 17.0833 25.5288 17.0833 25.5288M17.0833 6.52725V25.5288M20.0521 27.3085C20.3824 26.6243 20.8971 26.0458 21.5382 25.638C22.1792 25.2302 22.9213 25.0092 23.6811 25H31.3333M14.1146 27.3085C13.7902 26.6197 13.277 26.037 12.6346 25.6284C11.9922 25.2197 11.247 25.0018 10.4856 25H2.83333" stroke="#E85D04" stroke-width="2.5" stroke-miterlimit="10" stroke-linecap="round" stroke-linejoin="round"/>
</svg>
