<svg width="38" height="38" viewBox="0 0 38 38" fill="none" xmlns="http://www.w3.org/2000/svg">
<path d="M28.5003 23.75H25.3337V26.9167H28.5003M28.5003 17.4167H25.3337V20.5833H28.5003M31.667 30.0833H19.0003V26.9167H22.167V23.75H19.0003V20.5833H22.167V17.4167H19.0003V14.25H31.667M15.8337 11.0833H12.667V7.91667H15.8337M15.8337 17.4167H12.667V14.25H15.8337M15.8337 23.75H12.667V20.5833H15.8337M15.8337 30.0833H12.667V26.9167H15.8337M9.50033 11.0833H6.33366V7.91667H9.50033M9.50033 17.4167H6.33366V14.25H9.50033M9.50033 23.75H6.33366V20.5833H9.50033M9.50033 30.0833H6.33366V26.9167H9.50033M19.0003 11.0833V4.75H3.16699V33.25H34.8337V11.0833H19.0003Z" fill="#E85D04"/>
</svg>
